<?xml version="1.0" standalone="no"?>
<!DOCTYPE svg PUBLIC "-//W3C//DTD SVG 20010904//EN"
 "http://www.w3.org/TR/2001/REC-SVG-20010904/DTD/svg10.dtd">
<svg version="1.0" xmlns="http://www.w3.org/2000/svg"
 width="645.000000pt" height="387.000000pt" viewBox="0 0 645.000000 387.000000"
 preserveAspectRatio="xMidYMid meet">

<g transform="translate(0.000000,387.000000) scale(0.100000,-0.100000)"
fill="#000000" stroke="none">
<path d="M1280 3630 l0 -40 40 0 40 0 0 40 0 40 -40 0 -40 0 0 -40z"/>
<path d="M4833 3560 c-49 -20 -56 -92 -13 -123 28 -20 80 -19 96 2 11 14 56
-8 229 -112 59 -36 59 -37 56 -80 -2 -33 3 -47 18 -61 11 -10 18 -23 14 -29
-3 -5 -1 -7 5 -4 5 4 17 4 26 1 14 -5 16 -29 16 -169 0 -155 -1 -163 -22 -177
-14 -10 -21 -24 -20 -44 0 -28 -8 -34 -144 -113 -79 -45 -144 -85 -144 -87 0
-6 40 15 174 94 95 56 123 68 136 60 9 -6 29 -8 43 -4 45 11 49 88 5 102 -21
6 -21 10 -14 168 4 92 11 162 17 164 5 2 23 15 39 29 41 34 43 98 4 134 -31
29 -93 32 -122 6 -19 -18 -24 -16 -161 64 -95 54 -140 86 -137 95 10 27 -15
72 -46 83 -17 6 -31 11 -32 10 -1 0 -11 -4 -23 -9z"/>
<path d="M1540 3520 l0 -40 40 0 40 0 0 40 0 40 -40 0 -40 0 0 -40z"/>
<path d="M1323 3463 c-18 -9 -33 -19 -33 -23 0 -3 18 -16 40 -29 l39 -22 41
21 c22 11 40 24 40 28 0 10 -66 42 -83 41 -7 0 -27 -8 -44 -16z"/>
<path d="M1770 3472 c-50 -16 -66 -76 -30 -112 35 -35 110 -16 110 28 0 9 62
12 235 12 l236 0 44 -95 44 -95 388 0 387 0 21 -26 c40 -50 115 -23 115 41 0
40 -27 65 -69 65 -25 0 -36 -6 -49 -30 l-17 -30 -382 0 -383 0 -44 96 -45 95
-238 -2 c-231 -1 -237 -1 -246 19 -10 23 -53 42 -77 34z m50 -32 c24 -24 25
-38 3 -62 -33 -37 -83 -17 -83 34 0 45 46 62 80 28z m1477 -197 c14 -20 13
-24 -12 -48 -24 -25 -28 -26 -48 -12 -44 29 -28 91 21 85 14 -2 31 -13 39 -25z"/>
<path d="M4640 3371 c-122 -72 -136 -78 -155 -65 -50 35 -125 -4 -125 -66 0
-30 37 -80 60 -80 6 0 10 -47 10 -133 l0 -133 -42 -19 c-35 -16 -47 -29 -62
-67 -19 -46 -19 -48 -1 -89 22 -49 66 -79 113 -79 33 0 92 27 92 42 0 15 17 8
136 -60 116 -67 119 -70 116 -100 -3 -25 3 -39 26 -62 37 -37 74 -39 107 -5
29 28 35 95 11 115 -8 6 -12 19 -9 28 4 13 3 14 -5 3 -6 -9 -25 -12 -55 -10
-25 2 -43 1 -41 -2 2 -4 -2 -12 -10 -18 -10 -9 -40 5 -132 58 l-119 69 3 57
c4 53 2 59 -29 91 -17 18 -45 36 -61 39 l-28 7 0 133 c0 122 1 133 19 138 11
2 25 0 32 -7 9 -8 10 -8 5 1 -4 7 1 24 10 38 11 17 15 37 11 59 l-5 33 116 66
c110 62 164 96 152 96 -3 0 -66 -35 -140 -78z m-210 -579 c0 -32 5 -41 26 -51
15 -6 29 -10 31 -7 2 2 -5 7 -17 11 -15 5 -20 13 -17 26 3 10 1 17 -4 13 -5
-3 -9 6 -9 20 0 30 15 33 42 10 17 -16 17 -18 0 -30 -15 -12 -15 -12 6 -7 29
7 29 -15 1 -51 -25 -32 -70 -35 -99 -6 -26 26 -25 51 1 84 28 36 39 33 39 -12z"/>
<path d="M4936 3357 c3 -10 9 -15 12 -12 3 3 0 11 -7 18 -10 9 -11 8 -5 -6z"/>
<path d="M993 3272 c-40 -20 -73 -40 -73 -43 0 -4 36 -25 79 -48 l79 -41 78
42 c71 38 75 42 58 55 -24 19 -131 73 -141 73 -4 -1 -41 -18 -80 -38z"/>
<path d="M4747 3303 c-4 -3 -7 -13 -7 -22 1 -13 3 -13 11 2 11 19 8 33 -4 20z"/>
<path d="M4710 3235 c-7 -9 -10 -18 -7 -21 3 -3 10 4 17 15 13 25 8 27 -10 6z"/>
<path d="M5036 3187 c3 -10 9 -15 12 -12 3 3 0 11 -7 18 -10 9 -11 8 -5 -6z"/>
<path d="M440 3150 l0 -40 45 0 45 0 0 40 0 40 -45 0 -45 0 0 -40z"/>
<path d="M4677 3183 c-4 -3 -7 -11 -7 -17 0 -6 5 -5 12 2 6 6 9 14 7 17 -3 3
-9 2 -12 -2z"/>
<path d="M4590 3170 c8 -5 20 -10 25 -10 6 0 3 5 -5 10 -8 5 -19 10 -25 10 -5
0 -3 -5 5 -10z"/>
<path d="M5125 3170 c-3 -6 1 -7 9 -4 18 7 21 14 7 14 -6 0 -13 -4 -16 -10z"/>
<path d="M4650 3141 c0 -5 -3 -17 -7 -27 -6 -15 -4 -15 14 2 20 19 21 34 2 34
-5 0 -9 -4 -9 -9z"/>
<path d="M5060 3141 c0 -6 4 -12 8 -15 5 -3 9 1 9 9 0 8 -4 15 -9 15 -4 0 -8
-4 -8 -9z"/>
<path d="M4809 3114 c-30 -13 -51 -23 -47 -24 4 0 -1 -19 -11 -41 -19 -42 -15
-82 11 -116 5 -7 6 -18 2 -24 -4 -8 -3 -9 5 -5 6 4 17 3 24 -2 34 -26 74 -30
116 -11 23 10 49 16 59 13 13 -5 14 -4 4 4 -11 8 -10 17 7 51 l22 42 -20 44
c-11 25 -16 45 -10 45 5 0 9 4 9 10 0 5 -6 7 -13 4 -8 -3 -34 4 -58 14 l-45
20 -55 -24z m51 -9 c0 -2 -13 -11 -30 -20 -26 -13 -30 -13 -30 -1 0 8 6 17 13
19 16 7 47 8 47 2z m81 -26 c16 -17 29 -40 29 -50 0 -29 -14 -23 -27 12 -8 19
-23 34 -42 42 -36 13 -41 27 -10 27 12 0 34 -14 50 -31z m-150 -22 c-6 -6 -11
-16 -11 -21 0 -6 7 0 16 12 8 12 20 20 26 16 6 -4 6 -10 -1 -17 -6 -6 -11 -16
-11 -21 0 -6 5 -3 11 7 5 9 17 17 26 17 14 0 14 2 -2 14 -18 13 -16 14 20 14
36 0 38 -1 20 -14 -16 -12 -16 -14 -2 -14 9 0 21 -8 26 -17 6 -10 11 -13 11
-8 0 6 -5 16 -11 22 -7 7 -7 13 0 17 11 7 33 -26 30 -47 -3 -23 3 -52 8 -39 7
17 23 15 23 -4 0 -23 -55 -74 -79 -74 -12 0 -20 5 -18 11 1 6 -4 14 -12 17
-10 3 -12 0 -8 -12 11 -27 -29 -19 -63 14 -33 32 -42 74 -14 63 12 -4 15 -2
12 8 -3 8 -11 13 -17 12 -6 -2 -11 4 -11 13 0 24 20 55 31 48 7 -4 7 -10 0
-17z"/>
<path d="M4810 2984 c0 -6 5 -15 12 -22 6 -6 8 -15 4 -19 -4 -5 -16 3 -27 16
-10 13 -19 19 -19 14 0 -17 52 -59 57 -45 3 6 15 12 28 12 13 0 25 -6 28 -12
3 -9 12 -5 28 11 13 14 16 19 6 11 -20 -15 -36 -5 -19 12 7 7 12 16 12 20 0 4
-9 -1 -21 -13 -22 -22 -55 -19 -76 9 -7 9 -13 11 -13 6z"/>
<path d="M4516 3107 c3 -10 9 -15 12 -12 3 3 0 11 -7 18 -10 9 -11 8 -5 -6z"/>
<path d="M4710 3116 c0 -2 7 -7 16 -10 8 -3 12 -2 9 4 -6 10 -25 14 -25 6z"/>
<path d="M5196 3093 c-6 -14 -5 -15 5 -6 7 7 10 15 7 18 -3 3 -9 -2 -12 -12z"/>
<path d="M4615 3069 c-4 -6 -5 -12 -2 -15 2 -3 7 2 10 11 7 17 1 20 -8 4z"/>
<path d="M4540 3061 c0 -5 5 -13 10 -16 6 -3 10 -2 10 4 0 5 -4 13 -10 16 -5
3 -10 2 -10 -4z"/>
<path d="M648 3027 c-21 -12 -38 -24 -38 -27 0 -3 20 -14 43 -26 l42 -21 48
22 c26 13 50 25 52 29 3 3 2 4 -1 1 -4 -2 -28 7 -55 20 -27 14 -50 25 -51 25
-2 -1 -20 -11 -40 -23z"/>
<path d="M1250 3020 c0 -5 5 -10 11 -10 5 0 7 5 4 10 -3 6 -8 10 -11 10 -2 0
-4 -4 -4 -10z"/>
<path d="M4580 3015 c-6 -8 -9 -19 -5 -25 11 -17 20 -11 21 15 2 29 1 30 -16
10z"/>
<path d="M5133 3000 c0 -23 3 -28 9 -16 5 9 5 23 0 32 -6 12 -9 7 -9 -16z"/>
<path d="M5160 2975 c0 -5 5 -17 10 -25 5 -8 10 -10 10 -5 0 6 -5 17 -10 25
-5 8 -10 11 -10 5z"/>
<path d="M1403 2948 c-24 -11 -43 -23 -43 -27 0 -4 19 -16 43 -28 l43 -21 43
22 c46 24 45 29 -14 59 -28 14 -33 13 -72 -5z"/>
<path d="M4546 2954 c-9 -24 -2 -26 12 -4 7 11 8 20 3 20 -5 0 -12 -7 -15 -16z"/>
<path d="M4610 2939 c7 -11 14 -19 16 -16 7 7 -7 37 -17 37 -6 0 -5 -9 1 -21z"/>
<path d="M5100 2930 c-6 -11 -8 -20 -6 -20 3 0 10 9 16 20 6 11 8 20 6 20 -3
0 -10 -9 -16 -20z"/>
<path d="M5196 2907 c3 -10 9 -15 12 -12 3 3 0 11 -7 18 -10 9 -11 8 -5 -6z"/>
<path d="M1668 2878 c-8 -46 1 -58 43 -58 39 0 39 0 39 40 0 40 0 40 -39 40
-32 0 -39 -4 -43 -22z"/>
<path d="M4641 2894 c1 -23 15 -43 25 -36 8 5 5 13 -7 26 -11 11 -19 15 -18
10z"/>
<path d="M4710 2890 c-8 -5 -10 -10 -5 -10 6 0 17 5 25 10 8 5 11 10 5 10 -5
0 -17 -5 -25 -10z"/>
<path d="M5067 2875 c-8 -20 -4 -29 11 -24 5 2 6 13 2 23 -6 19 -7 19 -13 1z"/>
<path d="M4600 2840 c-13 -8 -12 -10 3 -10 9 0 17 5 17 10 0 12 -1 12 -20 0z"/>
<path d="M4676 2827 c3 -10 9 -15 12 -12 3 3 0 11 -7 18 -10 9 -11 8 -5 -6z"/>
<path d="M5125 2830 c3 -5 11 -10 16 -10 6 0 7 5 4 10 -3 6 -11 10 -16 10 -6
0 -7 -4 -4 -10z"/>
<path d="M5037 2823 c-4 -3 -7 -11 -7 -17 0 -6 5 -5 12 2 6 6 9 14 7 17 -3 3
-9 2 -12 -2z"/>
<path d="M460 2770 l0 -40 45 0 45 0 0 40 0 40 -45 0 -45 0 0 -40z"/>
<path d="M840 2770 l0 -40 45 0 45 0 0 40 0 40 -45 0 -45 0 0 -40z"/>
<path d="M4710 2772 c6 -13 14 -21 18 -18 3 4 -2 14 -12 24 -18 16 -18 16 -6
-6z"/>
<path d="M5007 2773 c-4 -3 -7 -11 -7 -17 0 -6 5 -5 12 2 6 6 9 14 7 17 -3 3
-9 2 -12 -2z"/>
<path d="M4740 2721 c0 -6 4 -13 10 -16 6 -3 7 1 4 9 -7 18 -14 21 -14 7z"/>
<path d="M4966 2705 c-3 -8 -1 -15 3 -15 5 0 11 7 15 15 3 8 1 15 -3 15 -5 0
-11 -7 -15 -15z"/>
<path d="M5932 2679 c-38 -15 -52 -25 -50 -37 5 -24 140 -29 213 -8 60 18 88
42 64 57 -27 17 -170 9 -227 -12z"/>
<path d="M6138 2630 c-56 -30 -169 -47 -220 -33 -24 6 -44 10 -45 9 -6 -5 29
-252 37 -259 38 -41 249 -19 293 31 13 15 13 31 -1 145 -9 70 -19 127 -22 127
-3 -1 -22 -10 -42 -20z"/>
<path d="M2990 1920 l0 -340 315 0 315 0 0 340 0 340 -315 0 -315 0 0 -340z
m108 273 c3 -19 -1 -23 -26 -23 -26 0 -29 3 -24 26 6 33 45 30 50 -3z m72 2
c0 -20 -5 -25 -25 -25 -20 0 -25 5 -25 25 0 20 5 25 25 25 20 0 25 -5 25 -25z
m70 0 c0 -20 -5 -25 -25 -25 -20 0 -25 5 -25 25 0 20 5 25 25 25 20 0 25 -5
25 -25z m70 0 c0 -20 -5 -25 -25 -25 -20 0 -25 5 -25 25 0 20 5 25 25 25 20 0
25 -5 25 -25z m75 -2 c1 -19 -3 -23 -27 -23 -23 0 -28 4 -28 26 0 22 4 25 27
22 19 -2 27 -9 28 -25z m103 0 c3 -20 -1 -23 -27 -23 -23 0 -31 5 -31 18 0 25
10 33 35 30 12 -2 21 -12 23 -25z m72 2 c0 -20 -5 -25 -25 -25 -20 0 -25 5
-25 25 0 20 5 25 25 25 20 0 25 -5 25 -25z m-460 -70 c0 -20 -5 -25 -25 -25
-20 0 -25 5 -25 25 0 20 5 25 25 25 20 0 25 -5 25 -25z m70 0 c0 -20 -5 -25
-25 -25 -20 0 -25 5 -25 25 0 20 5 25 25 25 20 0 25 -5 25 -25z m70 0 c0 -20
-5 -25 -25 -25 -20 0 -25 5 -25 25 0 20 5 25 25 25 20 0 25 -5 25 -25z m70 0
c0 -20 -5 -25 -25 -25 -20 0 -25 5 -25 25 0 20 5 25 25 25 20 0 25 -5 25 -25z
m71 18 c0 -5 2 -16 4 -25 2 -14 -4 -18 -26 -18 -24 0 -29 4 -29 25 0 20 5 25
25 25 14 0 25 -3 26 -7z m77 -20 c3 -20 -1 -23 -27 -23 -27 0 -31 4 -31 26 0
22 4 25 28 22 19 -2 28 -9 30 -25z m102 2 c0 -20 -5 -25 -25 -25 -20 0 -25 5
-25 25 0 20 5 25 25 25 20 0 25 -5 25 -25z m-462 -72 c3 -19 -1 -23 -22 -23
-21 0 -26 5 -26 26 0 21 4 25 23 22 14 -2 23 -11 25 -25z m102 2 c0 -20 -5
-25 -25 -25 -20 0 -25 5 -25 25 0 20 5 25 25 25 20 0 25 -5 25 -25z m70 0 c0
-20 -5 -25 -25 -25 -20 0 -25 5 -25 25 0 20 5 25 25 25 20 0 25 -5 25 -25z
m140 0 c0 -21 -5 -25 -30 -25 -22 0 -30 5 -30 18 0 25 9 32 37 32 18 0 23 -5
23 -25z m70 0 c0 -20 -5 -25 -25 -25 -20 0 -25 5 -25 25 0 20 5 25 25 25 20 0
25 -5 25 -25z m80 0 c0 -20 -5 -25 -25 -25 -20 0 -25 5 -25 25 0 20 5 25 25
25 20 0 25 -5 25 -25z m-440 -80 c0 -33 -2 -35 -35 -35 -33 0 -35 2 -35 35 0
33 2 35 35 35 33 0 35 -2 35 -35z m448 -2 c3 -32 2 -33 -37 -33 -40 0 -41 1
-41 36 0 35 1 35 38 32 34 -3 37 -6 40 -35z m-370 0 c3 -20 -1 -23 -27 -23
-27 0 -31 4 -31 26 0 22 4 25 28 22 19 -2 28 -9 30 -25z m72 2 c0 -21 -5 -25
-30 -25 -25 0 -30 4 -30 25 0 21 5 25 30 25 25 0 30 -4 30 -25z m70 0 c0 -20
-5 -25 -24 -25 -14 0 -28 5 -31 10 -12 19 4 40 30 40 20 0 25 -5 25 -25z m70
0 c0 -20 -5 -25 -25 -25 -20 0 -25 5 -25 25 0 20 5 25 25 25 20 0 25 -5 25
-25z m60 0 c0 -20 -5 -25 -25 -25 -20 0 -25 5 -25 25 0 20 5 25 25 25 20 0 25
-5 25 -25z m-350 -90 c0 -33 -2 -35 -35 -35 -33 0 -35 2 -35 35 0 33 2 35 35
35 33 0 35 -2 35 -35z m138 -2 c3 -32 2 -33 -37 -33 -38 0 -41 2 -41 28 0 37
8 44 45 40 26 -3 30 -7 33 -35z m122 2 c0 -33 -2 -35 -35 -35 -33 0 -35 2 -35
35 0 33 2 35 35 35 33 0 35 -2 35 -35z m178 -2 c3 -32 2 -33 -37 -33 -38 0
-41 2 -41 28 0 37 8 44 45 40 26 -3 30 -7 33 -35z m-118 2 c0 -20 -5 -25 -25
-25 -20 0 -25 5 -25 25 0 20 5 25 25 25 20 0 25 -5 25 -25z m-342 -87 c-4 -30
-43 -37 -51 -9 -6 25 0 31 30 31 20 0 24 -5 21 -22z m70 0 c-2 -15 -11 -24
-25 -26 -19 -3 -23 1 -23 22 0 21 5 26 26 26 21 0 25 -4 22 -22z m72 -3 c0
-20 -5 -25 -25 -25 -20 0 -25 5 -25 25 0 20 5 25 25 25 20 0 25 -5 25 -25z
m70 0 c0 -20 -5 -25 -25 -25 -20 0 -25 5 -25 25 0 20 5 25 25 25 20 0 25 -5
25 -25z m108 3 c-2 -17 -10 -23 -28 -23 -18 0 -26 6 -28 23 -3 19 1 22 28 22
27 0 31 -3 28 -22z m70 0 c-2 -17 -10 -23 -28 -23 -18 0 -26 6 -28 23 -3 19 1
22 28 22 27 0 31 -3 28 -22z m72 -3 c0 -20 -5 -25 -25 -25 -20 0 -25 5 -25 25
0 20 5 25 25 25 20 0 25 -5 25 -25z m-462 -62 c3 -19 -1 -23 -22 -23 -21 0
-26 5 -26 26 0 21 4 25 23 22 14 -2 23 -11 25 -25z m70 0 c3 -19 -1 -23 -22
-23 -21 0 -26 5 -26 26 0 21 4 25 23 22 14 -2 23 -11 25 -25z m92 -8 c0 -33
-2 -35 -35 -35 -33 0 -35 2 -35 35 0 33 2 35 35 35 33 0 35 -2 35 -35z m120 0
c0 -34 -1 -35 -40 -35 -37 0 -40 2 -40 28 0 37 6 42 47 42 31 0 33 -2 33 -35z
m118 -2 c3 -32 2 -33 -37 -33 -38 0 -41 2 -41 28 0 37 8 44 45 40 26 -3 30 -7
33 -35z m60 10 c3 -19 -1 -23 -22 -23 -21 0 -26 5 -26 26 0 21 4 25 23 22 14
-2 23 -11 25 -25z m-458 -88 c0 -20 -5 -25 -25 -25 -20 0 -25 5 -25 25 0 20 5
25 25 25 20 0 25 -5 25 -25z m70 0 c0 -20 -5 -25 -25 -25 -20 0 -25 5 -25 25
0 20 5 25 25 25 20 0 25 -5 25 -25z m70 0 c0 -20 -5 -25 -25 -25 -20 0 -25 5
-25 25 0 20 5 25 25 25 20 0 25 -5 25 -25z m100 0 c0 -20 -5 -25 -25 -25 -20
0 -25 5 -25 25 0 20 5 25 25 25 20 0 25 -5 25 -25z m74 16 c11 -18 -6 -41 -30
-41 -19 0 -24 5 -24 25 0 20 5 25 24 25 14 0 27 -4 30 -9z m76 -16 c0 -20 -5
-25 -24 -25 -14 0 -28 5 -31 10 -12 19 4 40 30 40 20 0 25 -5 25 -25z m70 0
c0 -20 -5 -25 -25 -25 -20 0 -25 5 -25 25 0 20 5 25 25 25 20 0 25 -5 25 -25z"/>
<path d="M1052 2228 c-19 -19 -14 -56 8 -63 43 -14 69 44 31 65 -24 13 -24 13
-39 -2z"/>
<path d="M1428 2179 c-22 -12 -23 -42 -2 -60 31 -26 70 25 44 56 -14 17 -19
18 -42 4z"/>
<path d="M5389 2013 l-24 -28 27 24 c16 13 32 20 39 16 8 -5 10 -4 5 3 -11 18
-20 15 -47 -15z"/>
<path d="M5456 2023 c-6 -14 -5 -15 5 -6 7 7 10 15 7 18 -3 3 -9 -2 -12 -12z"/>
<path d="M1112 2018 c-30 -30 3 -77 40 -57 30 16 16 69 -17 69 -6 0 -16 -5
-23 -12z"/>
<path d="M1589 2014 c-9 -11 -10 -20 -2 -32 15 -24 44 -27 59 -7 28 38 -27 75
-57 39z"/>
<path d="M5560 2020 c-9 -6 -10 -10 -3 -10 6 0 15 5 18 10 8 12 4 12 -15 0z"/>
<path d="M5518 1973 c7 -3 16 -2 19 1 4 3 -2 6 -13 5 -11 0 -14 -3 -6 -6z"/>
<path d="M5444 1948 l-19 -23 23 19 c12 11 22 21 22 23 0 8 -8 2 -26 -19z"/>
<path d="M1418 1859 c-33 -19 -15 -69 24 -69 15 0 38 27 38 44 0 7 -31 36 -38
36 -4 0 -15 -5 -24 -11z"/>
<path d="M5620 1849 c0 -5 5 -7 10 -4 6 3 10 8 10 11 0 2 -4 4 -10 4 -5 0 -10
-5 -10 -11z"/>
<path d="M5559 1833 c-13 -16 -12 -17 4 -4 16 13 21 21 13 21 -2 0 -10 -8 -17
-17z"/>
<path d="M5619 1783 l-24 -28 28 24 c15 14 27 26 27 28 0 8 -8 1 -31 -24z"/>
<path d="M5444 1779 c-4 -7 -3 -9 4 -5 5 3 13 0 15 -6 4 -9 6 -10 6 -1 1 17
-16 25 -25 12z"/>
<path d="M5540 1752 c0 -7 -17 -13 -37 -14 l-38 -1 34 -4 c33 -4 61 10 48 24
-4 3 -7 1 -7 -5z"/>
<path d="M4400 1570 c0 -6 83 -10 228 -10 l229 0 28 -55 27 -55 314 0 c203 0
314 4 314 10 0 6 -109 10 -308 10 l-308 0 -27 55 -27 55 -235 0 c-150 0 -235
-4 -235 -10z"/>
<path d="M764 1266 c1 -8 5 -18 8 -22 4 -3 5 1 4 10 -1 8 -5 18 -8 22 -4 3 -5
-1 -4 -10z"/>
<path d="M760 1216 c0 -8 4 -17 9 -20 5 -4 7 3 4 14 -6 23 -13 26 -13 6z"/>
<path d="M716 1183 c-6 -14 -5 -15 5 -6 7 7 10 15 7 18 -3 3 -9 -2 -12 -12z"/>
<path d="M766 1162 c-2 -4 0 -14 6 -22 8 -12 9 -12 5 2 -3 9 -1 19 6 22 9 3 9
5 0 5 -6 1 -14 -3 -17 -7z"/>
<path d="M2334 876 c-9 -36 1 -56 29 -56 13 0 28 -5 34 -11 8 -8 10 3 9 38 -1
46 -2 48 -33 51 -28 3 -33 -1 -39 -22z"/>
<path d="M3910 870 c-13 -9 -13 -10 0 -10 13 0 13 -2 0 -11 -13 -9 -12 -10 3
-5 9 3 17 1 17 -5 0 -6 5 -7 11 -3 7 4 7 9 2 13 -6 3 -12 11 -14 18 -3 8 -9 9
-19 3z"/>
<path d="M3825 859 c-4 -6 -5 -12 -2 -15 2 -3 7 2 10 11 7 17 1 20 -8 4z"/>
<path d="M4030 841 c0 -6 -8 -10 -17 -8 -10 1 -18 -2 -18 -8 0 -5 8 -9 19 -7
16 2 17 0 5 -15 -9 -11 -10 -14 -1 -9 6 4 13 2 13 -3 1 -6 2 -17 3 -23 0 -7 8
-13 16 -14 34 -2 39 -5 36 -16 -1 -7 -1 -9 2 -5 2 4 10 3 18 -4 8 -6 14 -7 14
-2 0 5 -18 19 -40 32 -44 25 -50 32 -20 26 11 -2 23 2 26 8 4 7 4 9 -1 5 -4
-4 -14 0 -22 10 -12 16 -13 16 -7 -1 5 -13 2 -16 -10 -11 -16 6 -17 24 -2 35
4 4 3 10 -3 13 -6 4 -11 2 -11 -3z"/>
<path d="M3712 814 c-12 -15 -20 -29 -16 -33 4 -3 9 -1 11 6 2 7 12 9 21 6 15
-4 15 -3 2 6 -8 6 -10 11 -4 11 6 0 11 7 11 15 0 8 -1 15 -1 15 -1 0 -11 -12
-24 -26z"/>
<path d="M3949 823 c-7 -10 -9 -15 -5 -11 5 4 16 2 25 -5 14 -10 14 -10 4 4
-7 9 -10 19 -6 22 3 4 4 7 1 7 -3 0 -12 -8 -19 -17z"/>
<path d="M2811 816 c-7 -8 -14 -27 -16 -43 -3 -24 0 -28 23 -30 38 -2 62 14
62 40 0 42 -44 63 -69 33z"/>
<path d="M3772 818 c2 -7 -4 -11 -12 -10 -8 2 -11 0 -7 -4 12 -12 38 -14 30
-1 -4 6 0 8 10 4 9 -3 21 1 28 11 11 14 11 15 -1 5 -9 -8 -19 -9 -32 -2 -14 7
-18 7 -16 -3z"/>
<path d="M2305 799 c-11 -17 1 -21 15 -4 8 9 8 15 2 15 -6 0 -14 -5 -17 -11z"/>
<path d="M3669 788 c-5 -18 -6 -38 -1 -34 7 8 12 36 6 36 -2 0 -4 -1 -5 -2z"/>
<path d="M2426 766 c3 -9 11 -16 16 -16 13 0 5 23 -10 28 -7 2 -10 -2 -6 -12z"/>
<path d="M4100 771 c0 -6 4 -13 10 -16 6 -3 7 1 4 9 -7 18 -14 21 -14 7z"/>
<path d="M2266 755 c-9 -26 -7 -32 5 -12 6 10 9 21 6 23 -2 3 -7 -2 -11 -11z"/>
<path d="M3687 744 c-3 -4 -2 -15 3 -24 7 -13 5 -22 -7 -31 -14 -12 -16 -12
-11 2 8 20 -6 46 -16 30 -4 -6 -2 -11 4 -11 6 0 8 -5 5 -10 -10 -16 -27 0 -22
21 3 11 1 17 -4 13 -13 -7 -11 -44 2 -44 5 0 8 -4 5 -9 -3 -4 6 -7 21 -5 31 3
45 22 33 45 -5 9 -6 19 -3 23 3 3 4 6 1 6 -2 0 -8 -3 -11 -6z"/>
<path d="M4056 727 c3 -10 9 -15 12 -12 3 3 0 11 -7 18 -10 9 -11 8 -5 -6z"/>
<path d="M2466 722 c-3 -5 1 -15 9 -22 16 -14 20 -3 6 19 -5 8 -11 9 -15 3z"/>
<path d="M2745 719 c-11 -17 1 -21 15 -4 8 9 8 15 2 15 -6 0 -14 -5 -17 -11z"/>
<path d="M2215 699 c-11 -17 1 -21 15 -4 8 9 8 15 2 15 -6 0 -14 -5 -17 -11z"/>
<path d="M4080 700 c-9 -6 -10 -10 -3 -10 6 0 15 5 18 10 8 12 4 12 -15 0z"/>
<path d="M4116 701 c-3 -5 1 -11 9 -14 9 -4 12 -1 8 9 -6 16 -10 17 -17 5z"/>
<path d="M2690 680 c-8 -5 -12 -12 -9 -15 8 -8 39 5 39 16 0 11 -11 11 -30 -1z"/>
<path d="M1610 661 c-16 -30 3 -70 32 -66 57 7 69 31 36 73 -16 19 -56 14 -68
-7z"/>
<path d="M2177 664 c-4 -4 -7 -14 -7 -23 0 -11 3 -12 11 -4 6 6 10 16 7 23 -2
6 -7 8 -11 4z"/>
<path d="M2506 655 c4 -8 10 -15 15 -15 4 0 6 7 3 15 -4 8 -10 15 -15 15 -4 0
-6 -7 -3 -15z"/>
<path d="M2640 635 c-14 -16 -3 -20 19 -6 8 5 9 11 3 15 -5 3 -15 -1 -22 -9z"/>
<path d="M3675 641 c-3 -5 -2 -12 3 -15 5 -3 9 1 9 9 0 17 -3 19 -12 6z"/>
<path d="M4769 601 c-17 -17 -29 -40 -29 -55 0 -19 -5 -26 -18 -26 -46 0 -69
-72 -34 -103 15 -14 42 -17 160 -17 140 0 141 0 161 26 21 27 26 59 15 89 -8
19 -55 45 -83 45 -11 0 -22 9 -26 20 -8 24 -54 50 -90 50 -16 0 -38 -12 -56
-29z"/>
<path d="M2130 605 c-8 -9 -8 -15 -2 -15 12 0 26 19 19 26 -2 2 -10 -2 -17
-11z"/>
<path d="M2534 593 c-13 -49 52 -78 75 -34 15 29 -5 61 -38 61 -25 0 -32 -5
-37 -27z"/>
<path d="M4136 595 c-4 -14 -2 -33 4 -43 8 -13 9 -11 4 12 -5 19 -3 27 4 22 6
-4 8 2 5 14 -7 26 -10 25 -17 -5z"/>
<path d="M1723 583 c9 -9 19 -14 23 -11 10 10 -6 28 -24 28 -15 0 -15 -1 1
-17z"/>
<path d="M4093 583 c0 -7 4 -13 8 -13 4 0 10 -8 12 -17 2 -10 4 -4 3 13 -1 29
-23 46 -23 17z"/>
<path d="M3625 579 c-4 -6 -5 -12 -2 -15 2 -3 7 2 10 11 7 17 1 20 -8 4z"/>
<path d="M1577 573 c-4 -3 -7 -13 -7 -21 0 -12 3 -12 15 -2 8 7 15 16 15 21 0
11 -14 12 -23 2z"/>
<path d="M2087 563 c-4 -3 -7 -11 -7 -17 0 -6 5 -5 12 2 6 6 9 14 7 17 -3 3
-9 2 -12 -2z"/>
<path d="M3650 553 c13 -27 27 -36 35 -23 4 6 2 9 -4 8 -5 -2 -17 6 -26 17
-16 20 -16 20 -5 -2z"/>
<path d="M1780 545 c7 -8 17 -12 22 -9 6 4 5 10 -3 15 -22 14 -33 10 -19 -6z"/>
<path d="M3630 543 c0 -7 5 -15 10 -18 6 -4 8 -10 5 -15 -3 -4 2 -13 10 -20
13 -11 14 -10 9 6 -10 28 -34 60 -34 47z"/>
<path d="M4071 527 c-13 -21 -12 -21 5 -5 10 10 16 20 13 22 -3 3 -11 -5 -18
-17z"/>
<path d="M1530 515 c-7 -8 -8 -15 -2 -15 5 0 15 7 22 15 7 8 8 15 2 15 -5 0
-15 -7 -22 -15z"/>
<path d="M1830 522 c0 -12 19 -26 26 -19 2 2 -2 10 -11 17 -9 8 -15 8 -15 2z"/>
<path d="M2040 505 c-8 -9 -8 -15 -2 -15 12 0 26 19 19 26 -2 2 -10 -2 -17
-11z"/>
<path d="M4087 495 c-5 -11 0 -15 16 -15 12 0 18 4 12 8 -5 4 -13 11 -16 15
-4 4 -9 1 -12 -8z"/>
<path d="M1490 475 c-18 -21 -3 -32 16 -13 10 9 12 18 6 22 -5 3 -15 -1 -22
-9z"/>
<path d="M1880 481 c0 -5 7 -12 16 -15 24 -9 28 -7 14 9 -14 17 -30 20 -30 6z"/>
<path d="M3705 470 c-6 -9 -4 -11 5 -5 8 5 11 3 8 -6 -3 -8 -11 -13 -17 -11
-7 1 -10 -2 -6 -8 5 -8 12 -7 23 2 14 11 15 10 8 -6 -7 -20 -7 -20 16 -1 13
11 24 20 26 21 2 1 -4 4 -13 8 -9 3 -13 2 -10 -4 10 -17 -7 -11 -20 7 -9 13
-14 13 -20 3z"/>
<path d="M4030 465 c-9 -11 -9 -15 -1 -15 7 0 10 -4 7 -9 -4 -5 3 -7 14 -4 16
4 19 2 14 -13 -5 -18 -5 -18 6 -1 6 9 15 15 20 12 5 -3 11 -1 14 4 4 5 2 12
-3 15 -5 4 -12 2 -15 -3 -7 -12 -46 -2 -46 11 0 6 7 7 16 4 8 -3 12 -2 9 4 -9
14 -21 12 -35 -5z"/>
<path d="M1942 458 c-7 -7 -12 -20 -12 -29 0 -18 25 -49 39 -49 20 0 44 30 46
57 1 27 -1 30 -30 31 -17 1 -37 -4 -43 -10z"/>
<path d="M1442 419 c-7 -10 -8 -19 -3 -19 13 0 33 28 23 33 -4 3 -13 -3 -20
-14z"/>
<path d="M3970 431 c0 -8 -6 -11 -16 -7 -9 3 -12 2 -9 -5 4 -6 14 -8 22 -5 8
3 23 1 33 -4 25 -13 35 4 13 21 -12 10 -14 10 -9 2 9 -16 -6 -17 -22 -1 -9 9
-12 9 -12 -1z"/>
<path d="M3741 416 c-9 -10 -8 -16 5 -27 11 -9 17 -10 23 -1 3 6 18 16 31 22
l25 11 -24 -5 c-14 -3 -30 -1 -37 5 -7 6 -15 5 -23 -5z m26 -12 c-3 -3 -12 -4
-19 -1 -8 3 -5 6 6 6 11 1 17 -2 13 -5z"/>
<path d="M4091 409 c-1 -8 13 -28 31 -45 17 -16 28 -24 24 -17 -3 6 1 13 11
16 13 3 12 5 -5 6 -25 1 -45 16 -55 41 -5 13 -6 13 -6 -1z"/>
<path d="M4115 410 c3 -5 8 -10 11 -10 2 0 4 5 4 10 0 6 -5 10 -11 10 -5 0 -7
-4 -4 -10z"/>
<path d="M3878 403 c7 -3 16 -2 19 1 4 3 -2 6 -13 5 -11 0 -14 -3 -6 -6z"/>
<path d="M3802 391 c-11 -6 -10 -10 4 -15 9 -3 19 -4 22 -1 3 3 -1 5 -9 5 -11
0 -11 2 1 10 8 5 11 10 5 10 -5 0 -16 -4 -23 -9z"/>
<path d="M3968 393 c7 -3 16 -2 19 1 4 3 -2 6 -13 5 -11 0 -14 -3 -6 -6z"/>
<path d="M4160 391 c0 -5 7 -12 16 -15 14 -5 15 -4 4 9 -14 17 -20 19 -20 6z"/>
<path d="M1400 375 c-18 -21 -3 -32 16 -13 10 9 12 18 6 22 -5 3 -15 -1 -22
-9z"/>
<path d="M4071 377 c2 -1 15 -11 29 -22 l25 -20 -19 23 c-11 12 -24 22 -29 22
-6 0 -8 -1 -6 -3z"/>
<path d="M1356 324 c-9 -24 -7 -28 9 -14 17 14 20 30 6 30 -5 0 -12 -7 -15
-16z"/>
<path d="M4196 326 c21 -15 30 -14 19 3 -3 6 -14 11 -23 11 -13 0 -13 -2 4
-14z"/>
<path d="M4154 314 c1 -8 8 -20 16 -27 11 -9 11 -8 0 7 -14 18 -13 18 9 11 15
-4 21 -3 17 3 -10 16 -44 21 -42 6z"/>
<path d="M1288 292 c-10 -2 -21 -15 -24 -29 -9 -33 16 -58 49 -49 58 14 33 91
-25 78z"/>
<path d="M4224 273 c2 -16 5 -29 6 -30 2 -2 3 -9 4 -15 2 -15 26 -12 41 4 7 8
6 9 -3 4 -19 -11 -41 11 -37 39 1 14 -2 25 -7 25 -5 0 -7 -12 -4 -27z"/>
<path d="M4252 274 c-1 -13 0 -24 2 -24 7 0 14 40 7 44 -4 3 -8 -6 -9 -20z"/>
<path d="M4201 274 c0 -11 3 -14 6 -6 3 7 2 16 -1 19 -3 4 -6 -2 -5 -13z"/>
<path d="M4284 272 c3 -5 0 -13 -6 -15 -9 -4 -10 -6 -1 -6 17 -1 25 16 12 25
-7 4 -9 3 -5 -4z"/>
</g>
</svg>
